<?xml version="1.0" standalone="no"?>
<!DOCTYPE svg PUBLIC "-//W3C//DTD SVG 20010904//EN"
 "http://www.w3.org/TR/2001/REC-SVG-20010904/DTD/svg10.dtd">
<svg version="1.0" xmlns="http://www.w3.org/2000/svg"
 width="512.000000pt" height="512.000000pt" viewBox="0 0 512.000000 512.000000"
 preserveAspectRatio="xMidYMid meet">
<metadata>
Created by potrace 1.16, written by Peter Selinger 2001-2019
</metadata>
<g transform="translate(0.000000,512.000000) scale(0.100000,-0.100000)"
fill="#000000" stroke="none">
<path d="M2520 4679 c-52 -26 -133 -66 -180 -88 -47 -22 -193 -92 -325 -156
-132 -65 -285 -139 -340 -165 -55 -26 -256 -125 -447 -218 l-348 -171 0 -665
c0 -594 2 -664 16 -670 20 -8 35 1 182 100 68 46 128 84 134 84 8 0 9 -28 4
-92 -9 -126 -32 -230 -67 -306 -16 -36 -29 -73 -29 -82 0 -24 126 -309 146
-332 23 -25 37 -15 176 121 66 64 126 120 134 124 11 7 14 -3 14 -53 0 -115
-20 -305 -42 -388 l-21 -83 83 -137 c136 -223 149 -242 169 -242 16 0 108 97
224 235 14 17 29 27 33 23 4 -4 13 -71 20 -148 9 -100 17 -149 30 -168 19 -29
244 -334 389 -526 50 -66 95 -121 101 -123 6 -2 85 90 175 204 89 114 206 262
258 328 96 120 96 120 103 190 4 39 7 98 7 132 1 37 6 65 13 69 8 5 53 -35
126 -112 l113 -119 25 30 c21 27 221 322 238 352 3 6 -2 35 -13 65 -11 29 -24
85 -30 125 -12 78 -15 193 -5 193 3 0 18 -8 32 -18 29 -20 215 -122 244 -134
14 -6 28 14 78 109 33 64 60 120 60 125 0 12 -48 10 -55 -2 -17 -28 -144 23
-163 65 -12 25 -17 85 -7 85 2 0 19 -14 36 -31 30 -30 121 -79 145 -79 7 0 2
24 -14 62 -25 64 -45 238 -26 238 20 0 103 -29 166 -58 l67 -30 29 46 c48 81
114 213 108 219 -3 3 -25 -5 -50 -17 -40 -22 -48 -23 -85 -11 -46 13 -61 37
-61 97 0 40 9 42 39 10 23 -25 88 -46 139 -46 37 0 38 9 34 208 -3 132 -5 142
-23 142 -10 0 -84 -31 -165 -70 -80 -38 -147 -70 -149 -70 -2 0 -74 -34 -161
-76 -88 -42 -199 -96 -249 -119 -49 -23 -133 -63 -185 -87 -52 -25 -156 -75
-230 -111 -279 -135 -436 -210 -480 -229 -83 -36 -80 -27 -80 -245 0 -124 -4
-193 -10 -191 -5 2 -30 35 -54 73 -25 39 -74 117 -111 175 -36 58 -93 146
-125 195 -85 130 -296 461 -430 675 -64 102 -151 239 -193 304 -42 66 -77 123
-77 128 0 5 28 22 63 37 34 16 184 86 332 156 149 70 297 139 330 155 33 15
109 51 169 79 59 28 110 51 111 51 2 0 50 22 107 49 783 368 781 367 775 384
-4 14 -44 37 -282 170 -99 55 -232 129 -295 165 -63 36 -146 82 -184 103 -38
22 -74 39 -80 38 -6 0 -54 -23 -106 -50z"/>
<path d="M4240 4215 c-19 -7 -68 -29 -107 -49 -62 -30 -426 -202 -633 -298
-36 -17 -101 -47 -145 -68 -80 -38 -200 -94 -330 -155 -38 -18 -128 -60 -199
-94 -70 -34 -130 -61 -132 -61 -4 0 -228 -104 -419 -195 -66 -32 -162 -77
-213 -101 -50 -24 -92 -47 -92 -53 0 -9 72 -126 160 -261 54 -82 126 -195 199
-310 27 -41 55 -76 63 -78 8 -2 93 35 189 81 297 144 470 227 474 227 1 0 79
37 171 81 93 45 210 101 259 124 50 23 137 65 195 93 58 27 163 77 233 110
367 175 388 186 393 206 2 12 3 199 2 416 -3 436 1 412 -68 385z"/>
</g>
</svg>
